<svg xmlns:dc="http://purl.org/dc/elements/1.1/" xmlns:cc="http://creativecommons.org/ns#" xmlns:rdf="http://www.w3.org/1999/02/22-rdf-syntax-ns#" xmlns:svg="http://www.w3.org/2000/svg" xmlns="http://www.w3.org/2000/svg" xmlns:xlink="http://www.w3.org/1999/xlink" id="svg79240" viewBox="0 0 1024 768" height="768px" width="1024px" version="1.1">
  <metadata id="metadata79246">
    <rdf:rdf>
      <cc:work rdf:about="">
        <dc:format>image/svg+xml</dc:format>
        <dc:type rdf:resource="http://purl.org/dc/dcmitype/StillImage"></dc:type>
      </cc:work>
    </rdf:rdf>
  </metadata>
  <defs id="defs79244"></defs>
  <linearGradient spreadMethod="pad" y2="30%" x2="-10%" y1="120%" x1="30%" id="3d_gradient2-logo-16ae4382-c545-4e93-bbe7-872cdc090a7a">
    <stop id="stop79221" stop-opacity="1" stop-color="#ffffff" offset="0%"></stop>
    <stop id="stop79223" stop-opacity="1" stop-color="#000000" offset="100%"></stop>
  </linearGradient>
  <linearGradient gradientTransform="rotate(-30)" spreadMethod="pad" y2="30%" x2="-10%" y1="120%" x1="30%" id="3d_gradient3-logo-16ae4382-c545-4e93-bbe7-872cdc090a7a">
    <stop id="stop79226" stop-opacity="1" stop-color="#ffffff" offset="0%"></stop>
    <stop id="stop79228" stop-opacity="1" stop-color="#cccccc" offset="50%"></stop>
    <stop id="stop79230" stop-opacity="1" stop-color="#000000" offset="100%"></stop>
  </linearGradient>
  <g id="logo-group">
    <image xlink:href="" id="container" x="272" y="144" width="480" height="480" style="display: none;" transform="translate(0 0)"></image>
    <g id="logo-center" transform="translate(1.1368683772161603e-13 0)">
      <image xlink:href="" id="icon_container" x="0" y="0" style="display: none;"></image>
      <g id="slogan" style="font-style:normal;font-weight:400;font-size:32px;line-height:1;font-family:'Fira Sans Condensed';font-variant-ligatures:none;text-align:center;text-anchor:middle" transform="translate(0 0)"></g>
      <g id="title" style="font-style:normal;font-weight:500;font-size:72px;line-height:1;font-family:'Raleway Medium Alt1';font-variant-ligatures:none;text-align:center;text-anchor:middle" transform="translate(0 0)">
        <path id="path79249" style="font-style:normal;font-weight:500;font-size:72px;line-height:1;font-family:'Raleway Medium Alt1';font-variant-ligatures:none;text-align:center;text-anchor:middle" d="m 382.81119,-35.496 c -1.008,-3.096 -2.592,-5.832 -4.608,-8.136 -2.088,-2.232 -4.68,-4.104 -7.776,-5.472 -3.096,-1.296 -6.696,-2.016 -10.728,-2.016 h -17.712 v 5.76 h 17.712 c 2.88,0 5.4,0.504 7.704,1.512 2.232,1.008 4.104,2.376 5.688,4.032 1.584,1.728 2.736,3.816 3.528,6.264 0.792,2.448 1.224,5.112 1.224,7.92 0,2.88 -0.432,5.472 -1.224,7.92 -0.792,2.448 -1.944,4.536 -3.456,6.264 -1.512,1.8 -3.384,3.24 -5.688,4.176 -2.304,1.008 -4.896,1.512 -7.776,1.512 h -11.232 v -32.76 h -6.48 V 0 h 17.712 c 3.744,0 7.128,-0.576 10.152,-1.8 3.024,-1.224 5.688,-2.952 7.848,-5.184 2.16,-2.232 3.816,-4.896 4.968,-8.064 1.152,-3.168 1.728,-6.696 1.728,-10.584 0,-3.456 -0.576,-6.768 -1.584,-9.864 z" stroke-width="0" stroke-linejoin="miter" stroke-miterlimit="2" fill="#d2ed94" stroke="#d2ed94" transform="translate(0 310.2112) translate(254.99497339999994 45.8168) scale(1.11) translate(-341.98719 51.12)"></path>
        <path id="path79251" style="font-style:normal;font-weight:500;font-size:72px;line-height:1;font-family:'Raleway Medium Alt1';font-variant-ligatures:none;text-align:center;text-anchor:middle" d="m 392.30056,-36.072 h 5.472 v -15.624 h -5.472 z" stroke-width="0" stroke-linejoin="miter" stroke-miterlimit="2" fill="#cfea98" stroke="#cfea98" transform="translate(0 310.2112) translate(327.4928140999999 45.17744) scale(1.11) translate(-392.30056 51.696)"></path>
        <path id="path79253" style="font-style:normal;font-weight:500;font-size:72px;line-height:1;font-family:'Raleway Medium Alt1';font-variant-ligatures:none;text-align:center;text-anchor:middle" d="m 451.76806,-15.624 c 1.224,-3.096 1.872,-6.408 1.872,-9.864 0,-3.168 -0.576,-6.336 -1.728,-9.432 -1.152,-3.096 -2.808,-5.832 -4.896,-8.352 -2.16,-2.448 -4.68,-4.392 -7.56,-5.904 -2.952,-1.512 -6.264,-2.304 -9.792,-2.304 -3.528,0 -6.696,0.72 -9.648,2.16 -2.952,1.44 -5.472,3.312 -7.632,5.688 -2.16,2.448 -3.888,5.184 -5.112,8.28 -1.224,3.168 -1.8,6.408 -1.8,9.792 0,3.312 0.576,6.48 1.728,9.576 1.152,3.168 2.736,5.904 4.896,8.28 2.088,2.448 4.608,4.392 7.56,5.832 2.952,1.512 6.192,2.232 9.864,2.232 2.592,0 5.04,-0.36 7.344,-1.224 0.144,0 0.36,-0.144 0.648,-0.216 l -4.176,-4.824 c -1.152,0.288 -2.448,0.432 -3.744,0.432 -2.664,0 -5.04,-0.504 -7.2,-1.656 -2.16,-1.08 -4.032,-2.592 -5.544,-4.464 -1.584,-1.872 -2.736,-3.96 -3.6,-6.408 -0.864,-2.448 -1.224,-4.896 -1.224,-7.56 0,-2.448 0.36,-4.896 1.224,-7.344 0.792,-2.376 1.944,-4.536 3.456,-6.408 1.512,-1.872 3.384,-3.456 5.544,-4.608 2.16,-1.152 4.608,-1.728 7.344,-1.728 2.52,0 4.896,0.576 7.056,1.656 2.16,1.152 3.96,2.592 5.544,4.464 1.584,1.872 2.736,4.032 3.6,6.48 0.864,2.448 1.296,4.896 1.296,7.488 0,2.448 -0.432,4.824 -1.152,7.128 -0.792,2.304 -1.872,4.392 -3.24,6.264 l -3.888,-4.536 h -6.336 l 6.84,7.992 3.888,4.536 3.6,4.176 h 6.336 l -6.408,-7.416 c 2.088,-2.376 3.816,-5.112 5.04,-8.208 z" stroke-width="0" stroke-linejoin="miter" stroke-miterlimit="2" fill="#cce79b" stroke="#cce79b" transform="translate(0 310.2112) translate(358.7631790999999 45.4172) scale(1.11) translate(-405.47206 51.48)"></path>
        <path id="path79255" style="font-style:normal;font-weight:500;font-size:72px;line-height:1;font-family:'Raleway Medium Alt1';font-variant-ligatures:none;text-align:center;text-anchor:middle" d="m 473.08681,0.72 c 3.24,0 6.264,-0.72 9,-2.232 2.736,-1.512 4.896,-3.672 6.624,-6.552 l 0.144,4.392 c 0,1.152 0.432,2.088 1.296,2.808 0.864,0.72 1.872,1.08 3.168,1.08 0.36,0 0.72,0 1.152,0 0.432,0 1.008,-0.072 1.728,-0.216 v -5.472 c -1.368,0 -2.016,-0.792 -2.016,-2.304 v -29.808 h -6.336 v 23.544 c -1.152,2.88 -2.808,5.184 -5.112,6.84 -2.304,1.656 -4.68,2.448 -7.272,2.448 -5.328,0 -7.992,-3.816 -7.992,-11.52 v -21.312 h -6.336 v 22.536 c 0,5.256 1.008,9.216 3.024,11.808 2.016,2.664 4.968,3.96 8.928,3.96 z" stroke-width="0" stroke-linejoin="miter" stroke-miterlimit="2" fill="#c9e49f" stroke="#c9e49f" transform="translate(0 310.2112) translate(437.1988315999999 60.841759999999994) scale(1.11) translate(-461.13481 37.584)"></path>
        <path id="path79257" style="font-style:normal;font-weight:500;font-size:72px;line-height:1;font-family:'Raleway Medium Alt1';font-variant-ligatures:none;text-align:center;text-anchor:middle" d="m 502.28731,-18.864 c 0,2.664 0.432,5.184 1.368,7.56 0.936,2.376 2.232,4.464 3.96,6.192 1.656,1.8 3.672,3.24 6.048,4.248 2.304,1.08 4.896,1.584 7.776,1.584 1.872,0 3.6,-0.216 5.328,-0.72 1.728,-0.432 3.24,-1.08 4.68,-1.944 1.368,-0.792 2.592,-1.8 3.6,-2.952 1.008,-1.152 1.872,-2.376 2.448,-3.816 l -6.192,-1.872 c -0.288,0.864 -0.792,1.584 -1.44,2.304 -0.72,0.72 -1.512,1.296 -2.376,1.8 -0.864,0.576 -1.872,1.008 -2.952,1.296 -1.08,0.288 -2.16,0.432 -3.24,0.432 -1.728,0 -3.384,-0.36 -4.896,-1.08 -1.512,-0.72 -2.808,-1.656 -3.96,-2.952 -1.152,-1.296 -2.016,-2.808 -2.664,-4.536 -0.72,-1.728 -1.008,-3.528 -1.008,-5.544 0,-2.016 0.288,-3.816 0.936,-5.544 0.648,-1.656 1.512,-3.096 2.664,-4.392 1.08,-1.224 2.376,-2.16 3.96,-2.88 1.512,-0.72 3.168,-1.08 4.896,-1.08 2.088,0 4.032,0.504 5.76,1.512 1.728,1.008 3.024,2.376 4.032,4.104 l 6.192,-1.944 c -1.44,-2.736 -3.456,-4.968 -6.192,-6.624 -2.736,-1.656 -5.904,-2.52 -9.648,-2.52 -2.88,0 -5.544,0.576 -7.848,1.584 -2.304,1.008 -4.32,2.448 -5.976,4.176 -1.728,1.728 -3.024,3.816 -3.888,6.12 -0.936,2.376 -1.368,4.896 -1.368,7.488 z" stroke-width="0" stroke-linejoin="miter" stroke-miterlimit="2" fill="#c6e2a2" stroke="#c6e2a2" transform="translate(0 310.2112) translate(499.52810659999983 60.122479999999996) scale(1.11) translate(-502.28731 38.232)"></path>
        <path id="path79259" style="font-style:normal;font-weight:500;font-size:72px;line-height:1;font-family:'Raleway Medium Alt1';font-variant-ligatures:none;text-align:center;text-anchor:middle" d="m 577.36081,0 v -22.464 c 0,-2.16 -0.216,-4.248 -0.648,-6.192 -0.432,-1.944 -1.08,-3.6 -1.944,-5.04 -0.936,-1.368 -2.16,-2.448 -3.672,-3.312 -1.584,-0.792 -3.456,-1.224 -5.616,-1.224 -3.024,0 -5.832,0.792 -8.352,2.304 -2.592,1.584 -4.608,3.672 -6.048,6.408 v -23.04 h -6.336 V 0 h 6.336 v -22.68 c 0.432,-1.44 1.008,-2.736 1.872,-3.96 0.864,-1.152 1.8,-2.232 2.88,-3.096 1.08,-0.864 2.232,-1.512 3.528,-2.016 1.224,-0.504 2.448,-0.792 3.744,-0.792 2.592,0 4.536,1.008 5.904,2.88 1.296,1.872 2.016,4.752 2.016,8.64 V 0 Z" stroke-width="0" stroke-linejoin="miter" stroke-miterlimit="2" fill="#c3dfa6" stroke="#c3dfa6" transform="translate(0 310.2112) translate(563.3059315999999 44.218399999999995) scale(1.11) translate(-544.74481 52.56)"></path>
        <path id="path79261" style="font-style:normal;font-weight:500;font-size:72px;line-height:1;font-family:'Raleway Medium Alt1';font-variant-ligatures:none;text-align:center;text-anchor:middle" d="m 596.86156,0.72 c 2.88,0 5.616,-0.576 8.208,-1.728 2.592,-1.152 4.68,-2.88 6.408,-5.184 l 0.144,2.664 c 0.144,1.08 0.576,2.016 1.296,2.736 0.72,0.72 1.728,1.08 3.024,1.08 0.432,0 0.936,0 1.368,-0.072 0.432,0 0.936,-0.072 1.656,-0.216 v -5.472 c -1.368,0 -2.016,-0.792 -2.016,-2.304 v -15.336 c 0,-4.752 -1.44,-8.496 -4.176,-11.16 -2.736,-2.592 -6.624,-3.96 -11.52,-3.96 -4.896,0 -9.792,1.656 -14.616,4.896 l 2.088,4.104 c 4.176,-2.88 8.136,-4.392 11.952,-4.392 3.168,0 5.616,0.936 7.344,2.664 1.728,1.728 2.592,4.176 2.592,7.2 v 3.024 c -1.44,-0.576 -3.096,-1.008 -4.968,-1.368 -1.872,-0.288 -3.744,-0.504 -5.544,-0.504 -2.304,0 -4.464,0.288 -6.408,0.864 -1.944,0.576 -3.6,1.368 -5.04,2.376 -1.44,1.008 -2.52,2.232 -3.24,3.672 -0.792,1.44 -1.152,2.952 -1.152,4.68 0,1.728 0.288,3.24 0.936,4.68 0.648,1.44 1.512,2.664 2.664,3.672 1.152,1.08 2.448,1.944 4.032,2.52 1.512,0.576 3.168,0.864 4.968,0.864 z m 1.656,-4.752 c -1.152,0 -2.232,-0.144 -3.24,-0.576 -1.008,-0.36 -1.944,-0.864 -2.664,-1.584 -0.72,-0.648 -1.296,-1.44 -1.728,-2.376 -0.432,-0.864 -0.576,-1.872 -0.576,-2.952 0,-2.16 0.936,-3.888 2.952,-5.256 2.016,-1.296 4.608,-2.016 7.776,-2.016 3.312,0 6.48,0.648 9.576,1.8 v 5.544 c 0,1.008 -0.504,1.944 -1.368,2.808 -1.008,1.44 -2.52,2.52 -4.464,3.384 -1.944,0.864 -4.032,1.224 -6.264,1.224 z" stroke-width="0" stroke-linejoin="miter" stroke-miterlimit="2" fill="#c0dca9" stroke="#c0dca9" transform="translate(0 310.2112) translate(623.8195240999999 60.122479999999996) scale(1.11) translate(-584.26156 38.232)"></path>
        <path id="path79263" style="font-style:normal;font-weight:500;font-size:72px;line-height:1;font-family:'Raleway Medium Alt1';font-variant-ligatures:none;text-align:center;text-anchor:middle" d="m 647.02306,-32.04 v -5.76 c -0.288,0 -0.576,-0.072 -0.864,-0.072 h -1.224 c -2.448,0.216 -4.68,1.152 -6.768,2.736 -2.16,1.584 -3.816,3.672 -5.112,6.264 v -8.712 h -5.904 V 0 h 6.336 v -23.184 c 1.008,-2.736 2.664,-4.824 5.112,-6.408 2.448,-1.512 5.256,-2.304 8.424,-2.448 z" stroke-width="0" stroke-linejoin="miter" stroke-miterlimit="2" fill="#bdd9ad" stroke="#bdd9ad" transform="translate(0 310.2112) translate(688.0768690999998 60.522079999999995) scale(1.11) translate(-627.15106 37.872)"></path>
        <path id="path79265" style="font-style:normal;font-weight:500;font-size:72px;line-height:1;font-family:'Raleway Medium Alt1';font-variant-ligatures:none;text-align:center;text-anchor:middle" d="m 662.95531,0.72 c 2.88,0 5.616,-0.576 8.208,-1.728 2.592,-1.152 4.68,-2.88 6.408,-5.184 l 0.144,2.664 c 0.144,1.08 0.576,2.016 1.296,2.736 0.72,0.72 1.728,1.08 3.024,1.08 0.432,0 0.936,0 1.368,-0.072 0.432,0 0.936,-0.072 1.656,-0.216 v -5.472 c -1.368,0 -2.016,-0.792 -2.016,-2.304 v -15.336 c 0,-4.752 -1.44,-8.496 -4.176,-11.16 -2.736,-2.592 -6.624,-3.96 -11.52,-3.96 -4.896,0 -9.792,1.656 -14.616,4.896 l 2.088,4.104 c 4.176,-2.88 8.136,-4.392 11.952,-4.392 3.168,0 5.616,0.936 7.344,2.664 1.728,1.728 2.592,4.176 2.592,7.2 v 3.024 c -1.44,-0.576 -3.096,-1.008 -4.968,-1.368 -1.872,-0.288 -3.744,-0.504 -5.544,-0.504 -2.304,0 -4.464,0.288 -6.408,0.864 -1.944,0.576 -3.6,1.368 -5.04,2.376 -1.44,1.008 -2.52,2.232 -3.24,3.672 -0.792,1.44 -1.152,2.952 -1.152,4.68 0,1.728 0.288,3.24 0.936,4.68 0.648,1.44 1.512,2.664 2.664,3.672 1.152,1.08 2.448,1.944 4.032,2.52 1.512,0.576 3.168,0.864 4.968,0.864 z m 1.656,-4.752 c -1.152,0 -2.232,-0.144 -3.24,-0.576 -1.008,-0.36 -1.944,-0.864 -2.664,-1.584 -0.72,-0.648 -1.296,-1.44 -1.728,-2.376 -0.432,-0.864 -0.576,-1.872 -0.576,-2.952 0,-2.16 0.936,-3.888 2.952,-5.256 2.016,-1.296 4.608,-2.016 7.776,-2.016 3.312,0 6.48,0.648 9.576,1.8 v 5.544 c 0,1.008 -0.504,1.944 -1.368,2.808 -1.008,1.44 -2.52,2.52 -4.464,3.384 -1.944,0.864 -4.032,1.224 -6.264,1.224 z" stroke-width="0" stroke-linejoin="miter" stroke-miterlimit="2" fill="#bad6b0" stroke="#bad6b0" transform="translate(0 310.2112) translate(730.4835865999999 60.122479999999996) scale(1.11) translate(-650.35531 38.232)"></path>
      </g>
      <image xlink:href="" id="icon" x="0" y="0" style="display: none;"></image>
    </g>
  </g>
</svg>